<svg width="44" height="44" fill="none" xmlns="http://www.w3.org/2000/svg"><rect x=".5" y=".5" width="43" height="43" rx="21.5" fill="#EF2779"/><path d="M18.093 23.239l2.63-2.631-5.754-5.746a.935.935 0 00-1.497.25 3.734 3.734 0 00.725 4.24l3.896 3.887zm6.303-1.683c1.423.66 3.422.195 4.9-1.283 1.776-1.776 2.12-4.324.753-5.69-1.357-1.358-3.905-1.023-5.69.753-1.478 1.478-1.943 3.477-1.283 4.9l-8.423 8.423a.927.927 0 101.31 1.311l5.756-5.736 5.746 5.745a.93.93 0 001.31 0 .928.928 0 000-1.31l-5.745-5.746 1.366-1.367z" fill="#fff"/></svg>