<svg width="44" height="44" fill="none" xmlns="http://www.w3.org/2000/svg"><rect x=".5" y=".751" width="43" height="42.498" rx="21.249" fill="#EF2779"/><path d="M20.524 29.868c1.499-.622 1.17-2.338.413-3.423-.75-1.111-1.785-1.876-2.83-2.614A8.423 8.423 0 0116.138 22c-.235-.294-.715-.836-.227-.943.497-.106 1.356.41 1.793.605.767.338 1.524.729 2.232 1.191l.85-1.511c-1.313-.916-2.997-1.725-4.563-1.965-.893-.142-1.836.053-2.139 1.076-.27.88.16 1.769.649 2.463 1.153 1.627 2.946 2.409 4.285 3.814.286.293.631.64.8 1.049.177.391.134.418-.261.418-1.044 0-2.35-.863-3.2-1.432l-.85 1.512c1.288.836 3.444 2.143 5.018 1.591zm9.337-13.87a.513.513 0 000-.702l-1.094-1.156a.46.46 0 00-.329-.14.46.46 0 00-.328.14l-.859.907 1.751 1.85.86-.899zm-8.285 5.042v1.849h1.752l5.178-5.468-1.752-1.85-5.178 5.469z" fill="#fff"/></svg>