<svg width="33" height="33" fill="none" xmlns="http://www.w3.org/2000/svg"><path d="M31.056.18H1.597a1.28 1.28 0 00-1.28 1.281v29.46c0 .708.572 1.28 1.28 1.28h29.46a1.28 1.28 0 001.28-1.28V1.46a1.28 1.28 0 00-1.28-1.28zM9.815 27.466H5.063V12.184h4.752v15.282zM7.44 10.095a2.754 2.754 0 110-5.508 2.754 2.754 0 010 5.508zm20.161 17.37h-4.747v-7.432c0-1.773-.032-4.05-2.47-4.05-2.47 0-2.85 1.929-2.85 3.922v7.56h-4.742v-15.28h4.555v2.09h.064c.632-1.201 2.18-2.47 4.494-2.47 4.812 0 5.696 3.166 5.696 7.28v8.382z" fill="#EF2779"/></svg>