<svg width="88" height="87" fill="none" xmlns="http://www.w3.org/2000/svg"><g clip-path="url(#clip0_66_4880)"><path d="M19.553 0h48.894C78.97 0 87.5 8.53 87.5 19.053v48.894C87.5 78.47 78.97 87 68.447 87H19.553C9.03 87 .5 78.47.5 67.947V19.053C.5 8.53 9.03 0 19.553 0z" fill="url(#paint0_linear_66_4880)"/><path d="M28.38 63.146l.008.003-2.975 5.152a3.932 3.932 0 01-6.81-3.932l2.191-3.795.21-.365c.376-.54 1.303-1.471 3.157-1.296 0 0 4.362.474 4.678 2.741 0 0 .043.746-.46 1.492zm42.19-13.158h-9.277c-.631-.043-.907-.269-1.016-.4l-.007-.012-9.929-17.198-.013.009-.595-.854c-.976-1.493-2.526 2.325-2.526 2.325-1.85 4.253.263 9.089 1 10.55l13.79 23.888a3.932 3.932 0 106.811-3.932L65.36 58.39c-.067-.144-.184-.537.524-.539h4.685a3.932 3.932 0 100-7.864zm-18.017 5.345s.495 2.518-1.42 2.518h-34.29a3.932 3.932 0 110-7.864h8.815c1.423-.082 1.76-.904 1.76-.904l.008.004 11.507-19.93-.003-.002a.88.88 0 00.005-.806l-3.8-6.582a3.932 3.932 0 116.81-3.932l1.762 3.052 1.76-3.047a3.932 3.932 0 016.81 3.932L36.264 49.507c-.07.169-.091.434.43.48h9.571l.002.094s5.532.086 6.286 5.252z" fill="#fff"/></g><defs><linearGradient id="paint0_linear_66_4880" x1="44" y1="0" x2="44" y2="87" gradientUnits="userSpaceOnUse"><stop stop-color="#17C9FB"/><stop offset="1" stop-color="#1A74E8"/></linearGradient><clipPath id="clip0_66_4880"><path fill="#fff" transform="translate(.5)" d="M0 0h87v87H0z"/></clipPath></defs></svg>