<svg width="84" height="89" fill="none" xmlns="http://www.w3.org/2000/svg"><g clip-path="url(#clip0_66_4873)"><path d="M77.677 71.95c-.626 4.624-3.755 8.627-8.137 10.406-2.146.888-4.47 1.156-6.796.888-2.235-.266-4.471-.978-6.796-2.31-3.22-1.781-6.438-4.537-10.194-8.629 5.902-7.203 9.478-13.785 10.82-19.654.626-2.757.715-5.248.447-7.56-.357-2.223-1.162-4.27-2.414-6.048-2.772-4.002-7.422-6.315-12.608-6.315-5.187 0-9.836 2.402-12.609 6.315-1.252 1.779-2.056 3.825-2.414 6.048-.357 2.313-.268 4.892.448 7.56 1.34 5.869 5.006 12.54 10.82 19.742-3.667 4.093-6.976 6.85-10.195 8.628-2.325 1.335-4.56 2.046-6.796 2.312a14.377 14.377 0 01-6.796-.888c-4.382-1.78-7.51-5.783-8.137-10.407-.268-2.223-.09-4.446.805-6.936.268-.89.716-1.778 1.162-2.846a188.24 188.24 0 012.057-4.448l.09-.177C16.603 44.38 23.22 30.861 30.106 17.7l.268-.535c.716-1.332 1.43-2.755 2.146-4.09.715-1.423 1.52-2.757 2.503-3.914 1.878-2.135 4.382-3.29 7.154-3.29 2.773 0 5.276 1.155 7.154 3.29.984 1.157 1.788 2.491 2.504 3.915.715 1.334 1.43 2.757 2.146 4.09l.269.534a1176.558 1176.558 0 0119.582 40.02v.088c.716 1.423 1.342 3.025 2.057 4.448.447 1.068.894 1.955 1.162 2.846.716 2.312.984 4.536.626 6.847zM42 67.768c-4.829-6.047-7.959-11.74-9.032-16.54-.446-2.047-.537-3.825-.267-5.427.178-1.423.715-2.669 1.43-3.737 1.698-2.399 4.56-3.913 7.869-3.913 3.308 0 6.26 1.424 7.868 3.913.715 1.068 1.252 2.314 1.431 3.737.268 1.602.179 3.469-.268 5.426-1.073 4.713-4.203 10.405-9.031 16.54zm40.328-4.625c-.447-1.067-.894-2.222-1.34-3.2-.716-1.601-1.432-3.114-2.058-4.537l-.09-.088A925.907 925.907 0 0059.078 15.12l-.268-.535a178.334 178.334 0 01-2.146-4.18c-.895-1.602-1.79-3.29-3.22-4.892C50.583 1.956 46.47 0 42.089 0c-4.471 0-8.495 1.956-11.446 5.337-1.341 1.6-2.325 3.29-3.219 4.892-.715 1.422-1.43 2.846-2.146 4.18l-.268.532c-6.885 13.34-13.592 26.86-19.762 40.2l-.09.178c-.626 1.422-1.341 2.933-2.057 4.535a58.784 58.784 0 00-1.34 3.203C.597 66.347.24 69.46.686 72.66a18.92 18.92 0 0011.625 14.763c2.325.98 4.74 1.424 7.243 1.424.716 0 1.61-.09 2.325-.179 2.95-.356 5.99-1.333 8.941-3.023 3.667-2.046 7.155-4.98 11.089-9.25 3.934 4.27 7.511 7.205 11.088 9.25 2.951 1.69 5.991 2.667 8.942 3.023.715.09 1.61.179 2.325.179 2.504 0 5.007-.445 7.243-1.424 6.26-2.489 10.64-8.181 11.624-14.763.716-3.114.358-6.225-.804-9.517z" fill="#E0565B"/></g><defs><clipPath id="clip0_66_4873"><path fill="#fff" transform="translate(.5)" d="M0 0h83v89H0z"/></clipPath></defs></svg>