<svg width="106" height="89" fill="none" xmlns="http://www.w3.org/2000/svg"><g clip-path="url(#clip0_66_4854)"><path d="M53.123.5C24.702.5 2.435 36.58.328 67.054c8.919 15.444 30.427 21.25 52.796 21.25 22.367 0 43.876-5.806 52.79-21.25C103.807 36.58 81.544.5 53.124.5" fill="#B6DEFF"/><path d="M98.49 59.795s-6.278-13.541-12.658-21.442C79.447 30.45 71.65 21.844 67.04 21.844c-4.608 0-17.489 22.755-23.398 22.755-5.91 0-8.982-10.315-16.248-10.315-7.27 0-18.818 24.875-18.818 24.875l-.783 4.217s4.012 17.749 45.987 17.749c41.977 0 45.332-17.458 45.332-17.458l-.622-3.873" fill="#6C6"/><path d="M44.3 54.31c-6.518 0-9.86-6.418-11.672-10.38-1.63-3.568-1.911-9.203-6.534-9.36.454-.18.891-.286 1.301-.286 7.266 0 10.338 10.315 16.248 10.315 5.91 0 18.79-22.755 23.398-22.755.868 0 1.846.305 2.907.849-.785-.103-1.791-.032-2.567.745-1.49 1.486-15.01 30.872-23.08 30.872z" fill="#17AD49"/></g><defs><clipPath id="clip0_66_4854"><path fill="#fff" transform="translate(0 .5)" d="M0 0h106v88H0z"/></clipPath></defs></svg>