<svg width="122" height="123" fill="none" xmlns="http://www.w3.org/2000/svg"><g clip-path="url(#clip0_66_4828)"><path opacity=".5" d="M60.852 17.508v34.944l30.427-17.508V0L60.852 17.508z" fill="#13A049"/><path opacity=".5" d="M60.852 17.508L30.426 0v35.017l30.426 17.508V17.508z" fill="#A2CC39"/><path opacity=".9" d="M91.28 0L60.855 17.508 30.427 0 0 17.508l60.854 35.017 60.817-35.017L91.281 0z" fill="url(#paint0_linear_66_4828)"/><path d="M60.854 52.525L0 17.508v35.017l30.427 17.508v34.981l30.427 17.508 30.427-17.508v-34.98l30.39-17.51V17.509L60.854 52.525z" fill="url(#paint1_linear_66_4828)"/><path d="M60.852 52.525v69.997l30.427-17.508v-34.98l30.39-17.51V17.509L60.852 52.525z" fill="url(#paint2_linear_66_4828)"/><path opacity=".05" d="M60.852 87.505v35.017l30.427-17.508-30.427-17.509z" fill="#231F20"/><path opacity=".1" d="M60.852 122.594V87.578l-30.426 17.508 30.426 17.508z" fill="#231F20"/><path opacity=".05" d="M30.427 35.017L0 52.525l30.427 17.508 30.427-17.508-30.427-17.508z" fill="#231F20"/><path opacity=".05" d="M91.279 35.017L60.852 52.525l30.427 17.508 30.39-17.508-30.39-17.508z" fill="#231F20"/></g><defs><linearGradient id="paint0_linear_66_4828" x1="121.686" y1="26.258" x2="0" y2="26.258" gradientUnits="userSpaceOnUse"><stop stop-color="#37BDA6"/><stop offset="1" stop-color="#8AD3B8"/></linearGradient><linearGradient id="paint1_linear_66_4828" x1="121.686" y1="70.013" x2="0" y2="70.013" gradientUnits="userSpaceOnUse"><stop offset=".5" stop-color="#4BB6AD"/><stop offset="1" stop-color="#78BBC1"/></linearGradient><linearGradient id="paint2_linear_66_4828" x1="60.841" y1="70.013" x2="121.683" y2="70.013" gradientUnits="userSpaceOnUse"><stop stop-color="#4379A7"/><stop offset="1" stop-color="#7CC9B8"/></linearGradient><clipPath id="clip0_66_4828"><path fill="#fff" d="M0 0h122v123H0z"/></clipPath></defs></svg>