<svg width="27" height="33" fill="none" xmlns="http://www.w3.org/2000/svg"><g clip-path="url(#clip0_67_8030)" fill="#EF2779"><path d="M13.86 19.864a6.34 6.34 0 006.334-6.333 6.34 6.34 0 00-6.333-6.334 6.34 6.34 0 00-6.334 6.334 6.34 6.34 0 006.334 6.333zm0-9.5a3.17 3.17 0 013.167 3.167 3.17 3.17 0 01-3.166 3.166 3.17 3.17 0 01-3.167-3.166 3.17 3.17 0 013.167-3.167z"/><path d="M12.608 32.236a1.58 1.58 0 001.836 0c.482-.34 11.795-8.509 11.749-18.706C26.193 6.546 20.51.864 13.526.864S.86 6.546.86 13.523C.814 23.727 12.127 31.895 12.608 32.236zm.918-28.206c5.24 0 9.5 4.261 9.5 9.508.033 7.027-6.948 13.337-9.5 15.406-2.55-2.07-9.533-8.382-9.5-15.414 0-5.239 4.26-9.5 9.5-9.5z"/></g><defs><clipPath id="clip0_67_8030"><path fill="#fff" transform="translate(.86 .697)" d="M0 0h26v32H0z"/></clipPath></defs></svg>